<?xml version="1.0" encoding="UTF-8" standalone="no"?>
<svg
   xmlns:dc="http://purl.org/dc/elements/1.1/"
   xmlns:cc="http://creativecommons.org/ns#"
   xmlns:rdf="http://www.w3.org/1999/02/22-rdf-syntax-ns#"
   xmlns:svg="http://www.w3.org/2000/svg"
   xmlns="http://www.w3.org/2000/svg"
   viewBox="0 0 566.92932 377.94666"
   height="377.94666"
   width="566.92932"
   xml:space="preserve"
   id="svg2"
   version="1.1"><metadata
     id="metadata8"><rdf:RDF><cc:Work
         rdf:about=""><dc:format>image/svg+xml</dc:format><dc:type
           rdf:resource="http://purl.org/dc/dcmitype/StillImage" /></cc:Work></rdf:RDF></metadata><defs
     id="defs6"><clipPath
       id="clipPath14"
       clipPathUnits="userSpaceOnUse"><path
         id="path12"
         d="M 0,0 H 425.2 V 283.46 H 0 Z" /></clipPath><clipPath
       id="clipPath32"
       clipPathUnits="userSpaceOnUse"><path
         id="path30"
         d="M 0,497 V 2835 H 3616 V 497 Z" /></clipPath><clipPath
       id="clipPath38"
       clipPathUnits="userSpaceOnUse"><path
         id="path36"
         d="M -2.5,497.865 H 3615.04 V 2837.1 H -2.5 Z" /></clipPath><clipPath
       id="clipPath42"
       clipPathUnits="userSpaceOnUse"><path
         id="path40"
         d="M 0,497 H 3616 V 2835 H 0 Z" /></clipPath><clipPath
       id="clipPath62"
       clipPathUnits="userSpaceOnUse"><path
         id="path60"
         d="M 637,497 V 2835 H 4252 V 497 Z" /></clipPath><clipPath
       id="clipPath68"
       clipPathUnits="userSpaceOnUse"><path
         id="path66"
         d="M 637.365,497.865 H 4254.5 V 2837.1 H 637.365 Z" /></clipPath><clipPath
       id="clipPath72"
       clipPathUnits="userSpaceOnUse"><path
         id="path70"
         d="M 637,497 H 4252 V 2835 H 637 Z" /></clipPath><clipPath
       id="clipPath92"
       clipPathUnits="userSpaceOnUse"><path
         id="path90"
         d="M 1546,500 V 2835 H 2979 V 500 Z" /></clipPath><clipPath
       id="clipPath98"
       clipPathUnits="userSpaceOnUse"><path
         id="path96"
         d="M 1546.34,500.097 H 2978.79 V 2837.1 H 1546.34 Z" /></clipPath><clipPath
       id="clipPath102"
       clipPathUnits="userSpaceOnUse"><path
         id="path100"
         d="M 1546,500 H 2979 V 2835 H 1546 Z" /></clipPath><clipPath
       id="clipPath122"
       clipPathUnits="userSpaceOnUse"><path
         id="path120"
         d="M 1273,500 V 2835 H 2707 V 500 Z" /></clipPath><clipPath
       id="clipPath128"
       clipPathUnits="userSpaceOnUse"><path
         id="path126"
         d="M 1273.61,500.097 H 2706.06 V 2837.1 H 1273.61 Z" /></clipPath><clipPath
       id="clipPath132"
       clipPathUnits="userSpaceOnUse"><path
         id="path130"
         d="M 1273,500 H 2707 V 2835 H 1273 Z" /></clipPath></defs><g
     clip-path="url(#clipPath14)"
     transform="matrix(1.3333333,0,0,-1.3333333,0,377.94667)"
     id="g10"><g
       transform="scale(0.1)"
       id="g16"><path
         id="path18"
         style="fill:none;stroke:#39c6f4;stroke-width:7.09000015;stroke-linecap:round;stroke-linejoin:round;stroke-miterlimit:10;stroke-dasharray:none;stroke-opacity:1"
         d="m 2693.11,784.855 h 566.94" /><path
         id="path20"
         style="fill:none;stroke:#39c6f4;stroke-width:7.09000015;stroke-linecap:round;stroke-linejoin:round;stroke-miterlimit:10;stroke-dasharray:none;stroke-opacity:1"
         d="M 992.328,784.855 H 1559.26" /><path
         id="path22"
         style="fill:none;stroke:#808080;stroke-width:5.0999999;stroke-linecap:round;stroke-linejoin:round;stroke-miterlimit:10;stroke-dasharray:432, 36, 36, 36;stroke-dashoffset:344.26998901;stroke-opacity:1"
         d="M 1275.79,501.387 V 784.855" /><path
         id="path24"
         style="fill:none;stroke:#808080;stroke-width:5.0999999;stroke-linecap:round;stroke-linejoin:round;stroke-miterlimit:10;stroke-dasharray:432, 36, 36, 36;stroke-dashoffset:344.26998901;stroke-opacity:1"
         d="M 2976.58,501.387 V 784.855" /><g
         id="g26"><g
           clip-path="url(#clipPath32)"
           id="g28"><g
             id="g34" /><g
             id="g54"><g
               style="opacity:0.19999701"
               id="g52"
               clip-path="url(#clipPath38)"><g
                 id="g50"><g
                   id="g48"
                   clip-path="url(#clipPath42)"><path
                     id="path44"
                     style="fill:#64ffff;fill-opacity:1;fill-rule:nonzero;stroke:none"
                     d="M 3609,2834.6 1275.8,501.398 0.00390625,1777.2 v 1057.4 z" /><path
                     id="path46"
                     style="fill:none;stroke:#006464;stroke-width:5;stroke-linecap:butt;stroke-linejoin:miter;stroke-miterlimit:10;stroke-dasharray:50, 50;stroke-dashoffset:0;stroke-opacity:1"
                     d="M 3609,2834.6 1275.8,501.398 0.00390625,1777.2 v 1057.4 z" /></g></g></g></g></g></g><g
         id="g56"><g
           clip-path="url(#clipPath62)"
           id="g58"><g
             id="g64" /><g
             id="g84"><g
               style="opacity:0.19999701"
               id="g82"
               clip-path="url(#clipPath68)"><g
                 id="g80"><g
                   id="g78"
                   clip-path="url(#clipPath72)"><path
                     id="path74"
                     style="fill:#64ffff;fill-opacity:1;fill-rule:nonzero;stroke:none"
                     d="M 4252,2834.6 V 1776.8 L 2976.6,501.398 643.402,2834.6 Z" /><path
                     id="path76"
                     style="fill:none;stroke:#006464;stroke-width:5;stroke-linecap:butt;stroke-linejoin:miter;stroke-miterlimit:10;stroke-dasharray:50, 50;stroke-dashoffset:0;stroke-opacity:1"
                     d="M 4252,2834.6 V 1776.8 L 2976.6,501.398 643.402,2834.6 Z" /></g></g></g></g></g></g><g
         id="g86"><g
           clip-path="url(#clipPath92)"
           id="g88"><g
             id="g94" /><g
             id="g114"><g
               style="opacity:0.19999701"
               id="g112"
               clip-path="url(#clipPath98)"><g
                 id="g110"><g
                   id="g108"
                   clip-path="url(#clipPath102)"><path
                     id="path104"
                     style="fill:#ff64ff;fill-opacity:1;fill-rule:nonzero;stroke:none"
                     d="M 2976.6,501.395 1550.8,2834.6 h 129.6" /><path
                     id="path106"
                     style="fill:none;stroke:#643264;stroke-width:5;stroke-linecap:butt;stroke-linejoin:miter;stroke-miterlimit:10;stroke-dasharray:50, 50;stroke-dashoffset:0;stroke-opacity:1"
                     d="M 2976.6,501.395 1550.8,2834.6 h 129.6 z" /></g></g></g></g></g></g><g
         id="g116"><g
           clip-path="url(#clipPath122)"
           id="g118"><g
             id="g124" /><g
             id="g144"><g
               style="opacity:0.19999701"
               id="g142"
               clip-path="url(#clipPath128)"><g
                 id="g140"><g
                   id="g138"
                   clip-path="url(#clipPath132)"><path
                     id="path134"
                     style="fill:#ff64ff;fill-opacity:1;fill-rule:nonzero;stroke:none"
                     d="M 2701.6,2834.6 1275.8,501.398 2572,2834.6" /><path
                     id="path136"
                     style="fill:none;stroke:#643264;stroke-width:5;stroke-linecap:butt;stroke-linejoin:miter;stroke-miterlimit:10;stroke-dasharray:50, 50;stroke-dashoffset:0;stroke-opacity:1"
                     d="M 2701.6,2834.6 1275.8,501.398 2572,2834.6 Z" /></g></g></g></g></g></g><path
         id="path146"
         style="fill:#000000;fill-opacity:1;fill-rule:nonzero;stroke:none"
         d="m 2140.36,1918.71 c -4.72,-1.94 -9.44,-2.39 -14.17,-2.5 -4.73,0.09 -9.45,0.55 -14.17,2.5 4.72,1.97 9.44,2.42 14.17,2.5 4.73,-0.09 9.45,-0.55 14.17,-2.5" /><path
         id="path148"
         style="fill:#000000;fill-opacity:1;fill-rule:nonzero;stroke:none"
         d="m 2126.18,1904.54 c -1.94,4.72 -2.39,9.44 -2.49,14.17 0.09,4.73 0.54,9.45 2.49,14.18 1.96,-4.73 2.41,-9.45 2.5,-14.18 -0.1,-4.73 -0.55,-9.45 -2.5,-14.17" /><path
         id="path150"
         style="fill:#000000;fill-opacity:1;fill-rule:nonzero;stroke:none"
         d="m 2116.17,1908.69 c 1.96,4.72 4.99,8.38 8.25,11.79 3.41,3.28 7.07,6.3 11.78,8.25 -1.95,-4.72 -4.97,-8.38 -8.25,-11.78 -3.41,-3.27 -7.07,-6.29 -11.78,-8.26" /><path
         id="path152"
         style="fill:#000000;fill-opacity:1;fill-rule:nonzero;stroke:none"
         d="m 2116.17,1928.73 c 4.71,-1.96 8.37,-4.98 11.78,-8.25 3.28,-3.41 6.3,-7.07 8.25,-11.78 -4.71,1.94 -8.37,4.98 -11.78,8.25 -3.26,3.41 -6.29,7.07 -8.25,11.78" /><path
         id="path154"
         style="fill:none;stroke:#808080;stroke-width:5.0999999;stroke-linecap:round;stroke-linejoin:round;stroke-miterlimit:10;stroke-dasharray:432, 36, 36, 36;stroke-dashoffset:175.61000061;stroke-opacity:1"
         d="M 1275.79,501.387 H 2976.58" /><path
         id="path156"
         style="fill:#000000;fill-opacity:1;fill-rule:nonzero;stroke:none"
         d="m 745.23,501.387 -14.402,93.601 h 28.801 m -14.399,189.867 14.399,-93.609 h -28.801" /><path
         id="path158"
         style="fill:#000000;fill-opacity:1;fill-rule:nonzero;stroke:none"
         d="m 968.695,194.285 81.875,-47.597 -18.09,-22.411 m 550.41,70.008 -63.77,-70.008 -18.09,22.411" /><path
         id="path160"
         style="fill:#000000;fill-opacity:1;fill-rule:nonzero;stroke:none"
         d="m 883.395,1918.71 14.398,-93.6 h -28.801 m 14.403,-1323.708 -14.403,93.59 h 28.801" /><path
         id="path162"
         style="fill:#000000;fill-opacity:1;fill-rule:nonzero;stroke:none"
         d="m 1275.79,293.32 93.6,14.391 v -28.789 m 1607.19,14.398 -93.6,-14.398 v 28.789" /><path
         id="path164"
         style="fill:#000000;fill-opacity:1;fill-rule:nonzero;stroke:none"
         d="m 2126.19,2115.75 -93.6,-14.4 v 28.8 m -756.8,-14.4 93.6,14.4 v -28.8" /><path
         id="path166"
         style="fill:none;stroke:#000000;stroke-width:5.0999999;stroke-linecap:round;stroke-linejoin:round;stroke-miterlimit:10;stroke-dasharray:none;stroke-opacity:1"
         d="m 2126.19,1947.06 v 197.03 M 1275.79,529.742 V 2144.09 m 850.4,-28.34 h -850.4" /><path
         id="path168"
         style="fill:none;stroke:#000000;stroke-width:5.0999999;stroke-linecap:round;stroke-linejoin:round;stroke-miterlimit:10;stroke-dasharray:none;stroke-opacity:1"
         d="M 1275.79,473.047 V 264.969 M 2976.58,473.047 V 264.969 m -1700.79,28.34 h 1700.79" /><path
         id="path170"
         style="fill:none;stroke:#000000;stroke-width:5.0999999;stroke-linecap:round;stroke-linejoin:round;stroke-miterlimit:10;stroke-dasharray:none;stroke-opacity:1"
         d="M 1255.75,481.348 948.648,174.246 m 347.192,307.102 307.1,-307.102" /><path
         id="path172"
         style="fill:none;stroke:#000000;stroke-width:5.0999999;stroke-linecap:round;stroke-linejoin:round;stroke-miterlimit:10;stroke-dasharray:none;stroke-opacity:1"
         d="M 1247.45,501.387 H 716.887 M 963.984,784.855 H 716.887 m 28.34,-283.468 v 283.468" /><path
         id="path174"
         style="fill:none;stroke:#000000;stroke-width:5.0999999;stroke-linecap:round;stroke-linejoin:round;stroke-miterlimit:10;stroke-dasharray:none;stroke-opacity:1"
         d="M 2097.84,1918.71 H 855.051 M 1247.45,501.402 H 855.051 m 28.34,1417.308 V 501.402" /><path
         id="path176"
         style="fill:none;stroke:#000000;stroke-width:5.0999999;stroke-linecap:butt;stroke-linejoin:miter;stroke-miterlimit:10;stroke-dasharray:none;stroke-opacity:1"
         d="m 2126.19,2115.75 -93.6,-14.4 v 28.8 l 93.6,-14.4 m -850.4,0 93.6,14.4 v -28.8 l -93.6,14.4" /><path
         id="path178"
         style="fill:none;stroke:#000000;stroke-width:5.0999999;stroke-linecap:butt;stroke-linejoin:miter;stroke-miterlimit:10;stroke-dasharray:none;stroke-opacity:1"
         d="m 1275.79,293.32 93.6,14.391 v -28.789 l -93.6,14.398 m 1700.79,0 -93.6,-14.398 v 28.789 l 93.6,-14.391" /><path
         id="path180"
         style="fill:none;stroke:#000000;stroke-width:5.0999999;stroke-linecap:butt;stroke-linejoin:miter;stroke-miterlimit:10;stroke-dasharray:none;stroke-opacity:1"
         d="m 968.695,194.285 81.875,-47.597 -18.09,-22.411 -63.785,70.008 m 614.195,0 -63.77,-70.008 -18.09,22.411 81.86,47.597 m -614.195,0 11.422,-11.008 11.821,-10.582 12.192,-10.16 12.56,-9.687 12.9,-9.219 13.23,-8.762 13.54,-8.269 13.84,-7.762 14.1,-7.258 14.37,-6.723 14.6,-6.2066 14.82,-5.6718 15.01,-5.1289 15.19,-4.5704 15.35,-4.0117 15.49,-3.4492 15.6,-2.8789 15.69,-2.3008 15.77,-1.7383 15.82,-1.1523 15.86,-0.5898 h 15.86 l 15.84,0.5898 15.84,1.1523 15.76,1.7383 15.7,2.3008 15.59,2.8789 15.5,3.4492 15.34,4.0117 15.2,4.5704 15.01,5.1289 14.81,5.6718 14.61,6.2066 14.36,6.723 14.1,7.258 13.84,7.762 13.55,8.269 13.23,8.762 12.9,9.219 12.55,9.687 12.2,10.16 11.82,10.582 11.41,11.008" /><path
         id="path182"
         style="fill:none;stroke:#000000;stroke-width:5.0999999;stroke-linecap:butt;stroke-linejoin:miter;stroke-miterlimit:10;stroke-dasharray:none;stroke-opacity:1"
         d="m 745.23,501.387 -14.402,93.601 h 28.801 L 745.23,501.387 m 0,283.468 14.399,-93.609 h -28.801 l 14.402,93.609" /><path
         id="path184"
         style="fill:none;stroke:#000000;stroke-width:5.0999999;stroke-linecap:butt;stroke-linejoin:miter;stroke-miterlimit:10;stroke-dasharray:none;stroke-opacity:1"
         d="m 883.395,1918.71 14.398,-93.6 h -28.801 l 14.403,93.6 m 0,-1417.308 -14.403,93.59 h 28.801 l -14.398,-93.59" /><path
         id="path186"
         style="fill:#000000;fill-opacity:1;fill-rule:nonzero;stroke:none"
         d="m 2112,320 h -11 v 86.063 h 11 v -31.688 c 4.41,6.656 10.04,9.672 16.89,9.672 3.49,0.316 7.38,-0.774 10.77,-2.313 3.16,-1.453 6.16,-3.714 8.34,-6.515 2.19,-2.531 3.9,-6.164 5.14,-10.11 1.19,-3.64 1.86,-8.156 1.86,-12.656 0,-10.476 -2.57,-18.898 -7.7,-24.719 C 2142.07,322 2136.02,319 2128.83,319 c -7.42,0 -12.76,3.535 -16.83,10.609 z m 0,31.953 c 0,-7.015 0.97,-12.117 2.91,-15.25 2.87,-5.039 7.47,-7.703 12.87,-7.703 4.13,0 8.2,1.891 11.41,5.672 3.14,3.891 4.81,9.414 4.81,16.906 0,7.805 -1.54,13.32 -4.62,16.969 -3.2,3.805 -6.8,5.484 -11.16,5.484 -4.47,0.321 -8.2,-1.89 -11.41,-5.672 -3.48,-3.558 -4.81,-9.242 -4.81,-16.406" /><path
         id="path188"
         style="fill:#000000;fill-opacity:1;fill-rule:nonzero;stroke:none"
         d="m 1178.94,101.281 c -4.2,-3.0857 -7.58,-5.6716 -11.06,-7.0466 -3.79,-1.1094 -7.25,-2.0625 -11.27,-2.0938 -6.83,0.2578 -11.73,1.6133 -15.3,4.9375 -3.68,3.6409 -5.37,7.6099 -5.4,12.8279 -0.33,3.082 0.63,5.844 1.95,8.375 1.05,2.77 3.08,4.567 5.25,6.11 2.14,1.742 4.62,2.707 7.33,3.5 1.86,0.597 5.03,1.109 9.08,1.64 8.05,1.227 14.28,2.321 18.17,3.75 -0.19,1.551 0.05,2.145 0.04,2.5 -0.26,3.977 -0.99,6.657 -2.92,8.25 -2.86,2.477 -6.43,3.219 -11.53,3.188 -4.87,0.226 -8.29,-0.789 -10.55,-2.266 -2.5,-1.465 -3.92,-4.094 -4.98,-7.844 l -11,0.938 c 0.66,4.711 2.46,7.941 4.63,10.641 2.05,2.812 5.32,4.8 9.43,6.281 3.85,1.488 8.91,2.234 14.36,2.265 5.33,0.286 9.77,-0.578 13.14,-1.828 3.28,-1.054 5.88,-2.828 7.47,-4.734 1.35,-1.797 2.74,-4.324 3.39,-7.25 0.31,-1.633 0.56,-4.961 0.58,-9.406 l 0.08,-13.344 c -0.23,-9.203 0.28,-15.496 0.7,-18.547 0.24,-2.7617 1.24,-5.9766 2.45,-8.7656 l -11,-0.0625 c -1.89,2.5039 -2.57,4.9297 -3.04,7.9841 z m -1.13,22 c -3.96,-1.125 -9.23,-2.543 -16.62,-3.531 -4.25,-0.469 -7.15,-1.172 -8.89,-1.859 -1.84,-0.653 -3.08,-1.684 -4.02,-2.985 -1.02,-1.261 -1.39,-2.73 -1.37,-4.312 -0.3,-2.305 1.04,-4.461 3.11,-6.063 2.06,-1.449 5.08,-2.398 9.04,-2.375 3.9,0.301 7.4,0.899 10.44,2.641 2.88,1.805 5.27,3.898 6.67,6.484 1.03,2.227 1.62,4.914 1.6,8.782 l 0.04,3.218" /><path
         id="path190"
         style="fill:#000000;fill-opacity:1;fill-rule:nonzero;stroke:none"
         d="m 1208.44,94.0625 -0.3,53.0315 -9,-0.047 -0.06,10 9,0.047 -0.03,6.328 c -0.05,4.18 0.33,6.953 1.11,8.891 1,2.851 2.91,4.753 5.57,6.39 2.43,1.742 6.32,2.477 10.94,2.5 2.74,0.285 6.26,-0.324 9.86,-1.031 l -1.53,-9.469 c -2.19,0.442 -4.26,0.508 -6.22,0.5 -3.46,0.242 -5.46,-0.656 -6.78,-1.906 -1.32,-1.008 -1.98,-3.555 -1.95,-6.938 l 0.03,-5.203 12,0.063 0.06,-10 -12,-0.063 0.3,-53.031 -11,-0.0625" /><path
         id="path192"
         style="fill:#000000;fill-opacity:1;fill-rule:nonzero;stroke:none"
         d="m 1235.81,125.547 c -0.33,11.672 3.02,20.07 9.25,25.656 5.2,4.899 11.59,6.973 19.11,7.016 8.3,0.312 15.2,-2.715 20.53,-8.297 5.11,-5.547 8.04,-13.297 8.1,-23.172 -0.22,-7.918 -1.09,-14.309 -3.41,-18.922 -2.45,-4.547 -5.73,-8.1874 -10.2,-10.7499 -4.55,-2.2578 -9.37,-3.8593 -14.66,-3.8906 -8.7,0.2305 -15.42,2.7109 -20.7,8.2655 -5.56,5.735 -7.95,13.582 -8.02,24.094 z m 11,0.094 c -0.22,-7.414 1.75,-13.168 5.1,-16.907 3.04,-3.64 7.53,-5.578 12.57,-5.546 4.83,0.3 9.14,1.941 12.44,5.734 2.99,3.816 4.93,9.539 4.88,17.25 -0.31,7.547 -1.75,12.769 -5.11,16.5 -3.6,3.836 -7.53,5.578 -12.47,5.547 -5.12,0.226 -9.22,-1.922 -12.52,-5.672 -3.54,-3.602 -4.93,-9.387 -4.89,-16.906" /><path
         id="path194"
         style="fill:#000000;fill-opacity:1;fill-rule:nonzero;stroke:none"
         d="m 1321.33,94.1406 -22.69,62.8904 11.67,0.078 13.07,-37.687 c 1.34,-3.871 2.81,-8.289 4.04,-12.672 0.79,3.414 2.21,7.336 3.85,12.016 l 12.7,38.531 11.66,0.062 -20.68,-63.1559 -13.62,-0.0625" /><path
         id="path196"
         style="fill:#000000;fill-opacity:1;fill-rule:nonzero;stroke:none"
         d="m 1366,94.0469 -0.48,86.0471 11,0.062 0.17,-31.437 c 4.64,6.406 11.04,9.488 18.51,9.531 4.52,0.27 8.57,-0.875 11.97,-2.687 3.35,-1.657 5.85,-4.313 7.31,-7.532 1.32,-2.886 2.24,-7.883 2.29,-14.015 l 0.21,-39.6722 -11,-0.0625 -0.21,39.0467 c -0.29,5.442 -1.18,9.008 -3.44,11.375 -2.36,2.473 -5.42,3.551 -9.5,3.531 -3.34,0.235 -5.94,-0.843 -8.63,-2.468 -2.75,-1.547 -4.6,-3.813 -5.73,-6.563 -1.29,-2.484 -1.69,-6.543 -1.66,-11.375 l 0.19,-33.7186 -11,-0.0625" /><path
         id="path198"
         style="fill:#000000;fill-opacity:1;fill-rule:nonzero;stroke:none"
         d="m 1672,2143 22.42,31.42 -21.42,31.6 h 13.28 l 10.3,-15.19 c 1.66,-2.67 3.41,-5.03 4.67,-6.88 1.49,2.24 3.07,4.33 4.5,6.33 l 11.25,15.74 h 13.3 L 1707.72,2174.41 1729,2143 h -13.28 l -12.55,18.5 -2.26,3.36 L 1685.3,2143 H 1672" /><path
         id="path200"
         style="fill:#000000;fill-opacity:1;fill-rule:nonzero;stroke:none"
         d="m 856,1184.34 h -9.422 l -44.594,37.61 c 0.34,-4.16 1,-7.86 1,-11.04 v -23.57 h -10 v 50 h 7.657 l 40.625,-34.25 5.734,-4.84 c -0.664,4.75 -1,8.72 -1,12.67 v 27.42 h 10 v -54" /><path
         id="path202"
         style="fill:#000000;fill-opacity:1;fill-rule:nonzero;stroke:none"
         d="m 718,636.438 h -53.031 v -9 h -10.016 v 9 h -6.328 c -4.195,0.187 -6.953,0.39 -8.891,1.171 -2.867,1.192 -4.742,2.93 -6.359,5.61 -1.75,2.945 -2.437,6.336 -2.437,10.953 -0.313,3.242 0.367,6.25 1.093,9.844 l 9.453,-1.578 c -0.515,-2 -0.531,-4.262 -0.531,-6.219 -0.316,-2.938 0.621,-5.465 1.86,-6.797 0.968,-1.133 3.554,-1.984 6.937,-1.984 h 5.203 v 12 h 10.016 v -12 H 718 v -11" /></g></g></svg>